<svg xmlns="http://www.w3.org/2000/svg" width="36" height="36" viewBox="0 0 36 36">
    <g fill="none" fill-rule="evenodd">
        <g fill="#D9514B">
            <path d="M12.726 23.67a1.17 1.17 0 0 1-1.13-.862 6.837 6.837 0 0 1-.243-1.813v-5.63c0-2.213 1.8-4.01 4.01-4.01 1.549 0 2.975.905 3.633 2.307a1.173 1.173 0 0 1-2.122.996 1.668 1.668 0 0 0-3.177.706v5.631c0 .405.053.807.159 1.192a1.17 1.17 0 0 1-1.13 1.482"/>
            <path d="M18.202 27.843a6.882 6.882 0 0 1-3.124-.752 1.173 1.173 0 0 1-.507-1.578 1.17 1.17 0 0 1 1.577-.507 4.51 4.51 0 0 0 6.559-4.011v-5.631c0-4.049-3.294-7.344-7.344-7.344a1.172 1.172 0 0 1 0-2.344c5.34 0 9.687 4.346 9.687 9.688v5.631a6.856 6.856 0 0 1-6.848 6.848"/>
            <path d="M18.202 33.52c-6.906 0-12.525-5.62-12.525-12.525v-5.63a9.731 9.731 0 0 1 4.799-8.367 1.17 1.17 0 1 1 1.184 2.023 7.378 7.378 0 0 0-3.64 6.343v5.631c0 5.614 4.568 10.181 10.182 10.181 1.654 0 3.23-.384 4.686-1.139a1.17 1.17 0 1 1 1.08 2.08 12.557 12.557 0 0 1-5.766 1.402"/>
            <path d="M26.965 29.384a1.17 1.17 0 0 1-.903-1.917 10.194 10.194 0 0 0 2.321-6.472v-5.631c0-5.4-3.395-10.301-8.449-12.196-.002 0-1.304-.433-2.309-.614-1.054-.191-2.267-.211-2.279-.211-7.162 0-13.003 5.841-13.003 13.021v5.631a1.17 1.17 0 1 1-2.343 0v-5.631C0 6.892 6.892 0 15.363 0c.075.001 1.436.023 2.679.247 1.185.214 2.615.692 2.675.713 6.002 2.249 10.01 8.033 10.01 14.404v5.631c0 2.901-1.015 5.728-2.857 7.963-.233.28-.568.426-.905.426M8.266 36c-.237 0-.477-.071-.684-.221a18.308 18.308 0 0 1-6.837-9.613 1.171 1.171 0 1 1 2.247-.665 15.946 15.946 0 0 0 5.959 8.376A1.173 1.173 0 0 1 8.266 36"/>
        </g>
    </g>
</svg>
